HIERARCHY
ROOT pelvis
{
	OFFSET 0.000000 0.000000 0.000000
	CHANNELS 6 Xposition Yposition Zposition Zrotation Xrotation Yrotation
	JOINT lfemur
	{
		OFFSET 11.446000 0.000000 0.000000
		CHANNELS 3 Zrotation Xrotation Yrotation
		JOINT ltibia
		{
			OFFSET 0.000000 -42.030400 0.000000
			CHANNELS 3 Zrotation Xrotation Yrotation
			JOINT lfoot
			{
				OFFSET 0.000000 -39.930200 0.000000
				CHANNELS 3 Zrotation Xrotation Yrotation
				JOINT ltoes
				{
					OFFSET 0.000000 0.000000 11.775800
					CHANNELS 3 Zrotation Xrotation Yrotation
					End Site
					{
					    OFFSET 0.000000 0.000000 5.000000
					}
				}
			}
		}
	}
	JOINT rfemur
	{
		OFFSET -11.446000 0.000000 0.000000
		CHANNELS 3 Zrotation Xrotation Yrotation
		JOINT rtibia
		{
			OFFSET 0.000000 -42.030400 0.000000
			CHANNELS 3 Zrotation Xrotation Yrotation
			JOINT rfoot
			{
				OFFSET 0.000000 -39.930200 0.000000
				CHANNELS 3 Zrotation Xrotation Yrotation
				JOINT rtoes
				{
					OFFSET 0.000000 0.000000 11.775800
					CHANNELS 3 Zrotation Xrotation Yrotation
					End Site
					{
					    OFFSET 0.000000 0.000000 5.000000
					}
				}
			}
		}
	}
	JOINT thorax
	{
		OFFSET 0.000000 11.255600 -5.000000
		CHANNELS 3 Zrotation Xrotation Yrotation
		JOINT head
		{
			OFFSET 0.000000 43.799300 0.000000
			CHANNELS 3 Zrotation Xrotation Yrotation
			End Site
			{
			    OFFSET 0.000000 5.000000 0.000000
			}
		}
		JOINT lclavicle
		{
			OFFSET 0.000000 39.863000 0.000000
			CHANNELS 3 Zrotation Xrotation Yrotation
			JOINT lhumerus
			{
				OFFSET 17.380600 4.958300 0.000000
				CHANNELS 3 Zrotation Xrotation Yrotation
				JOINT lradius
				{
					OFFSET 0.000000 -27.561300 0.000000
					CHANNELS 3 Zrotation Xrotation Yrotation
					JOINT lhand
					{
						OFFSET 0.000000 -26.933000 0.000000
						CHANNELS 3 Zrotation Xrotation Yrotation
						End Site
						{
						    OFFSET 0.000000 -5.000000 0.000000
						}
					}
				}
			}
		}
		JOINT rclavicle
		{
			OFFSET 0.000000 39.863000 0.000000
			CHANNELS 3 Zrotation Xrotation Yrotation
			JOINT rhumerus
			{
				OFFSET -17.380600 4.958300 0.000000
				CHANNELS 3 Zrotation Xrotation Yrotation
				JOINT rradius
				{
					OFFSET 0.000000 -27.561300 0.000000
					CHANNELS 3 Zrotation Xrotation Yrotation
					JOINT rhand
					{
						OFFSET 0.000000 -26.933000 0.000000
						CHANNELS 3 Zrotation Xrotation Yrotation
						End Site
						{
						    OFFSET 0.000000 -5.000000 0.000000
						}
					}
				}
			}
		}
	}
}
MOTION
Frames: 13
Frame Time:	0.0333333
72.122600 78.212400 5.948100 6.482913 -10.848999 -124.448704 3.311217 -45.012134 10.741800 0.000000 55.770019 0.000000 0.000000 -2.211839 7.555121 -0.000000 -1.501260 -0.000000 -11.295118 -38.151140 -2.620303 -0.000000 59.267907 -0.000000 0.000000 -15.243387 -2.884214 0.000000 -29.563677 0.000000 -7.527372 15.008464 -1.078219 6.940025 14.745828 16.111477 -8.129966 -0.000000 -1.923056 25.975099 -12.967270 0.509681 180.000034 -45.459798 160.382075 30.459957 2.257147 0.000000 24.751071 -0.000000 -1.780721 -46.629744 0.485351 34.613541 180.000035 -51.570091 -168.252227 -6.520583 -1.285783 0.000000 
72.392300 78.081700 5.709200 6.707482 -10.674697 -124.102310 4.071485 -45.506278 11.149497 0.000000 56.228560 -0.000000 -0.000000 -1.671372 7.180236 -0.000000 -1.525195 -0.000000 -10.532972 -38.275928 -0.859010 -0.000000 59.542753 0.000000 -0.000000 -15.340942 -1.906093 -0.000000 -29.566761 0.000000 -7.538254 15.077990 -0.957128 6.896531 14.537001 16.510100 -8.288733 -0.000000 -1.722117 26.222036 -12.804360 0.423442 -180.000033 -45.404928 161.292519 30.511560 2.054740 0.000000 24.774753 0.000000 -1.949437 -46.514231 -0.428334 34.875610 180.000037 -52.139889 -168.105712 -6.282064 -1.368233 0.000000 
72.858400 78.018900 5.325400 7.033978 -10.402265 -123.134802 4.750058 -45.985999 11.133901 -0.000000 56.282113 0.000000 -0.000000 -1.012594 6.264663 -0.000000 -1.561637 -0.000000 -9.401572 -38.119304 1.651054 -0.000000 59.730167 0.000000 -0.000000 -15.549776 -0.985621 -0.000000 -29.568165 0.000000 -7.538668 15.167612 -0.993519 7.013493 14.239982 16.681406 -8.399848 0.000000 -1.451745 26.532817 -12.450113 0.349220 180.000034 -45.637159 160.106929 30.463471 2.219672 -0.000000 24.943583 0.000000 -1.951453 -46.196388 -1.445683 35.522145 180.000037 -53.134988 -167.215015 -7.118838 -1.083901 0.000000 
73.436200 78.066700 4.747100 7.356373 -10.127697 -120.674727 4.482827 -46.399548 10.011199 -0.000000 55.629061 0.000000 0.000000 0.017969 4.767550 -0.000000 -1.562897 -0.000000 -8.930403 -37.457578 2.490939 -0.000000 59.875705 -0.000000 0.000000 -15.925528 -1.009060 0.000000 -29.567045 0.000000 -7.472898 15.431990 -1.164424 7.306513 13.822069 16.243491 -8.609561 -0.000000 -0.990025 26.595015 -12.556356 -0.295424 -180.000037 -45.858127 161.175815 29.790155 2.121440 0.000000 25.178409 -0.000000 -1.855886 -45.835003 -1.936605 35.546815 -180.000036 -53.495394 -168.652122 -5.571866 -1.607258 0.000000 
74.222000 78.269800 3.928500 7.959209 -9.660416 -116.321733 3.393320 -46.975987 7.718790 -0.000000 54.108439 0.000000 -0.000000 1.800533 2.505827 -0.000000 -1.578833 0.000000 -8.868584 -36.342431 1.256129 -0.000000 59.554652 0.000000 0.000000 -16.216990 -2.343689 -0.000000 -29.564555 -0.000000 -7.056902 15.518713 -1.478534 7.605673 13.495111 15.312316 -8.764375 -0.000000 -0.682607 26.256987 -12.541508 -1.121719 180.000036 -45.885803 161.673041 29.637353 2.241055 0.000000 25.534221 -0.000000 -1.744029 -45.274576 -1.685428 35.671849 180.000036 -53.722426 -167.925109 -6.371920 -1.338395 0.000000 
75.109100 78.642000 2.969500 8.605620 -9.511888 -110.209217 1.084862 -47.463012 4.889421 -0.000000 51.460623 0.000000 -0.000000 4.805511 -1.360211 -0.000000 -1.600282 0.000000 -9.832103 -34.974932 -1.501197 -0.000000 59.103757 -0.000000 0.000000 -16.617503 -4.544921 -0.000000 -29.560245 0.000000 -6.689078 15.681811 -1.601739 7.987459 13.047207 13.640314 -9.074181 0.000000 -0.141482 26.042329 -13.289702 -2.827626 -180.000037 -46.142911 161.373736 29.724316 2.030154 0.000000 25.521233 -0.000000 -1.711042 -44.001098 -0.934261 35.397674 180.000033 -54.015805 -166.078453 -7.887135 -0.828207 -0.000000 
76.105800 79.225900 1.729400 9.508915 -9.161310 -102.663228 -1.227279 -47.619278 2.621930 -0.000000 47.567978 -0.000000 0.000000 8.582995 -7.043706 0.000000 -1.596614 0.000000 -10.920631 -33.085179 -5.133892 -0.000000 57.778802 0.000000 -0.000000 -16.834657 -6.732342 -0.000000 -29.558326 -0.000000 -6.136806 15.279183 -1.376148 8.143788 13.136310 12.102857 -9.353873 0.000000 0.161849 26.617580 -13.654530 -4.909407 180.000037 -46.321064 161.444054 29.871358 2.133967 0.000000 25.427313 0.000000 -1.399554 -43.040314 1.056491 34.653677 180.000036 -53.574473 -167.121079 -6.600307 -1.260564 -0.000000 
76.882300 79.993300 0.445800 10.209614 -8.767201 -93.818030 -4.509806 -46.987090 0.770451 -0.000000 42.868930 -0.000000 0.000000 12.512331 -13.015510 -0.000000 -1.660796 -0.000000 -12.461588 -30.076198 -10.159813 -0.000000 55.506773 -0.000000 0.000000 -17.169777 -9.523498 0.000000 -29.553296 -0.000000 -5.522004 15.041692 -1.212196 8.344104 13.335670 10.776518 -9.582400 0.000000 0.888651 27.496612 -14.564877 -8.070668 180.000033 -47.072987 160.505963 30.560072 1.815410 0.000000 25.559614 0.000000 -1.421306 -42.732085 2.990928 33.652968 -180.000034 -53.025648 -168.037968 -5.717131 -1.560727 0.000000 
77.230900 80.805000 -0.686200 10.387281 -8.111684 -84.771242 -7.556131 -45.273442 1.423174 -0.000000 39.363956 -0.000000 0.000000 12.599804 -14.815563 -0.000000 -1.844709 -0.000000 -13.915175 -26.141714 -16.379180 0.000000 52.894734 -0.000000 -0.000000 -17.020689 -11.793583 -0.000000 -29.550061 -0.000000 -4.768116 14.670379 -0.860788 8.509897 14.078105 10.364675 -9.260701 0.000000 1.239463 28.219954 -14.761372 -10.310995 180.000035 -47.653247 160.464932 30.706866 1.960494 -0.000000 25.248726 0.000000 -1.185066 -42.795084 6.034218 32.680646 180.000034 -52.262387 -168.281034 -5.789131 -1.538514 -0.000000 
77.133600 81.562200 -1.691100 10.138986 -6.436855 -76.527812 -8.273593 -43.896155 6.149908 -0.000000 42.110106 -0.000000 -0.000000 8.334939 -5.684106 -0.000000 -1.747141 -0.000000 -13.600801 -21.845143 -21.566257 -0.000000 49.725843 -0.000000 0.000000 -15.964722 -12.732114 -0.000000 -29.549160 -0.000000 -3.407012 13.808687 -0.386505 9.170491 15.412980 10.511900 -8.535591 0.000000 1.371184 28.994986 -13.999228 -11.685386 -180.000037 -47.784786 161.872917 30.578541 1.578886 -0.000000 25.656762 0.000000 -1.634572 -45.033539 7.720968 32.791775 -180.000037 -51.613602 -167.711169 -6.558967 -1.277468 -0.000000 
76.598900 82.492600 -2.599200 8.852219 -4.052036 -69.591286 -5.828230 -41.978614 11.498702 -0.000000 48.982442 -0.000000 0.000000 6.023518 7.236585 -0.000000 -1.518561 -0.000000 -10.661641 -17.081077 -22.396599 -0.000000 45.763797 0.000000 0.000000 -13.157025 -12.712014 0.000000 -29.555894 0.000000 -1.889842 12.743064 0.109595 10.516058 17.566922 11.514276 -7.435706 -0.000000 2.201391 29.744703 -13.173452 -12.755095 180.000034 -48.349061 160.722560 30.621006 1.534992 -0.000000 26.396578 -0.000000 -1.822955 -47.495492 9.207442 33.227474 180.000034 -51.394152 -168.947531 -4.796366 -1.871552 -0.000000 
75.891500 83.779900 -3.054300 7.261375 -2.218411 -63.747770 -3.868487 -38.251062 12.132202 0.000000 52.821433 -0.000000 -0.000000 9.056468 11.731096 -0.000000 -1.339339 -0.000000 -7.532874 -13.092765 -20.191511 -0.000000 42.469025 0.000000 0.000000 -8.035499 -12.991825 0.000000 -29.558193 -0.000000 -0.927540 11.603315 0.876162 12.165797 20.099171 12.324726 -6.695692 -0.000000 2.871948 30.295136 -12.228447 -12.768973 -180.000037 -48.798458 161.645546 31.073529 1.712432 -0.000000 26.903780 -0.000000 -1.646599 -49.155000 10.256489 34.021645 180.000035 -52.256179 -168.721841 -5.068485 -1.781693 0.000000 
75.117700 85.127700 -2.920700 5.703605 -1.018421 -58.111668 -3.469399 -32.766229 9.091789 -0.000000 51.504299 0.000000 -0.000000 10.350239 11.633292 -0.000000 -1.324250 -0.000000 -6.437789 -10.775128 -19.238446 0.000000 42.825124 -0.000000 0.000000 -0.615554 -10.483286 0.000000 -29.562527 0.000000 -0.383082 10.178868 1.644904 13.945248 22.673863 12.119764 -6.266812 0.000000 3.356816 30.396706 -11.298821 -12.935758 -180.000036 -50.016003 159.827803 32.017800 1.665842 -0.000000 27.209656 0.000000 -1.582171 -50.057729 11.303893 34.933603 -180.000037 -53.064014 -168.500654 -5.033853 -1.792155 0.000000 
